# xmcd
#
# Track frame offsets:
# 150
# 11335
# 22177
# 36705
# 46805
# 57447
# 71910
# 85085
# 93847
# 105150
# 115187
# 124900
# 140455
# 155315
# 165025
# 177537
# 191385
# 203592
# 214167
# 226332
#
# Disc length: 3286 seconds
#
#
# Revision: 3
# Processed by: cddbd v1.5.1PL2 Copyright (c) Steve Scherf et al.
# Submitted via: FreeRIP 2.60 
#
DISCID=070cd414
DTITLE=Various Artist - Pure Country
DYEAR=1994
DGENRE=Country
TTITLE0=Rex Allen Jr-Dream on Texas Ladies
TTITLE1=Billie Jo Spears-All I Have To Do Is Dream
TTITLE2=BJ Thomas-Hooked On A Feeling
TTITLE3=Willie Nelson-Healing Hands Of Time
TTITLE4=Don Gibson-Oh Lonesome Me
TTITLE5=Loretta Lynn-Coalminer's Daughter (live)
TTITLE6=Kenny Rogers and The first edition - Ruby don't take your love to town
TTITLE7=Sandy Posey-Born A Woman
TTITLE8=George Jones-I Can't Change Overnight
TTITLE9=Faron Young-Hello Walls (live)
TTITLE10=Dolly Parton-Release me
TTITLE11=Jo South-Games People Play
TTITLE12=Jeannie C. Riley-Harper Valley PTA
TTITLE13=Ned Miller-From A Jack To A King
TTITLE14=Johnny Tillotson-I Can't Stop Loving You
TTITLE15=Patsy Cline-A Church, A Courtroom And Then Goodbye
TTITLE16=Johnny Cash-I walk the line
TTITLE17=Waylon Jennings-Dream Baby
TTITLE18=Hank Williams-Your Cheatin' Heart
TTITLE19=Graham Parsons and Emmylou Harris-Love Hurts
EXTD=
EXTT0=
EXTT1=
EXTT2=
EXTT3=
EXTT4=
EXTT5=
EXTT6=
EXTT7=
EXTT8=
EXTT9=
EXTT10=
EXTT11=
EXTT12=
EXTT13=
EXTT14=
EXTT15=
EXTT16=
EXTT17=
EXTT18=
EXTT19=
PLAYORDER=
